<svg width="13" height="16" viewBox="0 0 13 16" fill="none" xmlns="http://www.w3.org/2000/svg">
<path d="M7.94436 0.916952V3.90011C7.94436 4.30459 7.94436 4.50683 8.02308 4.66132C8.09232 4.79722 8.20281 4.9077 8.3387 4.97694C8.49319 5.05566 8.69543 5.05566 9.09991 5.05566H12.0831M7.94436 11.5556H3.61105M9.3888 8.66671H3.61105M12.2777 6.49154V11.7C12.2777 12.9135 12.2777 13.5202 12.0415 13.9837C11.8338 14.3913 11.5023 14.7228 11.0947 14.9305C10.6312 15.1667 10.0245 15.1667 8.81103 15.1667H4.18882C2.97538 15.1667 2.36866 15.1667 1.90518 14.9305C1.4975 14.7228 1.16604 14.3913 0.958319 13.9837C0.722167 13.5202 0.722167 12.9135 0.722167 11.7V4.18894C0.722167 2.9755 0.722167 2.36878 0.958319 1.90531C1.16604 1.49762 1.4975 1.16617 1.90518 0.958443C2.36866 0.722291 2.97538 0.722291 4.18882 0.722291H6.50843C7.03837 0.722291 7.30334 0.722291 7.5527 0.782156C7.77378 0.835232 7.98512 0.922774 8.17898 1.04157C8.39763 1.17556 8.58499 1.36292 8.95972 1.73765L11.2623 4.04025C11.637 4.41498 11.8244 4.60234 11.9584 4.82099C12.0772 5.01485 12.1647 5.22619 12.2178 5.44727C12.2777 5.69663 12.2777 5.9616 12.2777 6.49154Z" stroke="white" stroke-width="1.42222" stroke-linecap="round" stroke-linejoin="round"/>
</svg>
