<svg width="28" height="25" viewBox="0 0 28 25" fill="none" xmlns="http://www.w3.org/2000/svg">
<path d="M5.88487 12.5L25.726 12.4999M5.69545 12.9305L1.79347 21.7986C1.44972 22.5798 1.27785 22.9705 1.35334 23.2102C1.41878 23.418 1.58143 23.5808 1.78915 23.6465C2.02877 23.7223 2.41959 23.5508 3.20123 23.208L25.3837 13.4789C26.0893 13.1694 26.4421 13.0147 26.5501 12.7983C26.6438 12.6105 26.6438 12.3894 26.5501 12.2016C26.4421 11.9852 26.0893 11.8305 25.3837 11.521L3.20123 1.79188C2.41959 1.44906 2.02877 1.27765 1.78915 1.35342C1.58143 1.4191 1.41878 1.58194 1.35334 1.78974C1.27785 2.02945 1.44972 2.42007 1.79347 3.2013L5.69545 12.0694C5.76523 12.228 5.80012 12.3073 5.8139 12.3897C5.82611 12.4627 5.82611 12.5372 5.8139 12.6102C5.80012 12.6926 5.76523 12.7719 5.69545 12.9305Z" stroke="#B5B5B5" stroke-width="2.6" stroke-linecap="round" stroke-linejoin="round"/>
</svg>
