<svg width="17" height="16" viewBox="0 0 17 16" fill="none" xmlns="http://www.w3.org/2000/svg">
<path d="M7.72245 0.474771C7.92814 -0.158272 8.82372 -0.158272 9.02941 0.474771L10.5357 5.11051C10.6276 5.39362 10.8915 5.5853 11.1891 5.5853H16.0634C16.7291 5.5853 17.0058 6.43705 16.4673 6.82829L12.5239 9.69334C12.2831 9.86831 12.1823 10.1784 12.2743 10.4616L13.7806 15.0973C13.9862 15.7303 13.2617 16.2568 12.7232 15.8655L8.77981 13.0005C8.53898 12.8255 8.21288 12.8255 7.97206 13.0005L4.02866 15.8655C3.49016 16.2568 2.76562 15.7303 2.9713 15.0973L4.47755 10.4616C4.56953 10.1784 4.46876 9.86831 4.22794 9.69334L0.284542 6.82829C-0.253957 6.43705 0.0227955 5.5853 0.688417 5.5853H5.56272C5.8604 5.5853 6.12422 5.39362 6.21621 5.11051L7.72245 0.474771Z" fill="#3C4EF1"/>
</svg>
